<svg width="249" height="37" viewBox="0 0 249 37" fill="none" xmlns="http://www.w3.org/2000/svg">
<path d="M3.046 5.288L0.496 4.846V2.738H5.63C6.106 2.738 6.84267 2.71533 7.84 2.67C9.15467 2.57933 10.3447 2.534 11.41 2.534C13.7673 2.534 15.626 2.82867 16.986 3.418C18.3687 3.98467 19.3433 4.812 19.91 5.9C20.4993 6.96533 20.794 8.32533 20.794 9.98C20.794 12.836 19.8987 15.0573 18.108 16.644C16.34 18.2307 13.8807 19.024 10.73 19.024C9.48333 19.024 8.588 18.99 8.044 18.922V25.62L12.6 25.96V28H0.36V25.96L3.046 25.62V5.288ZM8.01 16.746C8.53133 16.8593 9.41533 16.916 10.662 16.916C12.1807 16.916 13.3933 16.3947 14.3 15.352C15.2293 14.2867 15.694 12.53 15.694 10.082C15.694 8.178 15.2747 6.79533 14.436 5.934C13.62 5.05 12.362 4.608 10.662 4.608C10.0273 4.608 9.37 4.65333 8.69 4.744C8.37267 4.78933 8.146 4.812 8.01 4.812V16.746ZM23.0085 25.994L25.2525 25.722V12.326L23.0765 11.714V9.368L28.3465 8.654H28.4485L29.2985 9.334V10.082L29.1965 12.836H29.2985C29.4572 12.3827 29.8312 11.8273 30.4205 11.17C31.0098 10.49 31.7465 9.90067 32.6305 9.402C33.5372 8.88066 34.5119 8.62 35.5545 8.62C36.0532 8.62 36.4838 8.688 36.8465 8.824V13.924C36.1665 13.448 35.3392 13.21 34.3645 13.21C32.7098 13.21 31.2705 13.652 30.0465 14.536V25.688L33.9905 25.994V28H23.0085V25.994ZM39.0124 18.582C39.0124 16.4513 39.4318 14.638 40.2704 13.142C41.1318 11.646 42.2764 10.524 43.7044 9.776C45.1324 9.00533 46.6851 8.62 48.3624 8.62C51.2184 8.62 53.4171 9.504 54.9584 11.272C56.5224 13.0173 57.3044 15.3973 57.3044 18.412C57.3044 20.5653 56.8738 22.4013 56.0124 23.92C55.1738 25.416 54.0404 26.538 52.6124 27.286C51.2071 28.0113 49.6544 28.374 47.9544 28.374C45.1211 28.374 42.9224 27.5013 41.3584 25.756C39.7944 23.988 39.0124 21.5967 39.0124 18.582ZM48.2264 26.164C50.7878 26.164 52.0684 23.6933 52.0684 18.752C52.0684 16.168 51.7624 14.2073 51.1504 12.87C50.5384 11.51 49.5411 10.83 48.1584 10.83C45.5291 10.83 44.2144 13.3007 44.2144 18.242C44.2144 20.826 44.5318 22.798 45.1664 24.158C45.8238 25.4953 46.8438 26.164 48.2264 26.164ZM64.5092 6.002C63.6932 6.002 63.0472 5.764 62.5712 5.288C62.1179 4.812 61.8912 4.2 61.8912 3.452C61.8912 2.59066 62.1632 1.87667 62.7072 1.31C63.2512 0.743332 63.9766 0.459998 64.8832 0.459998C65.7899 0.459998 66.4699 0.709331 66.9232 1.208C67.3992 1.684 67.6372 2.28467 67.6372 3.01C67.6372 3.91667 67.3652 4.642 66.8212 5.186C66.2999 5.73 65.5406 6.002 64.5432 6.002H64.5092ZM60.1572 9.402L66.3112 8.654H66.3792L67.2972 9.334V27.694C67.2972 29.462 66.9686 30.9807 66.3112 32.25C65.6539 33.542 64.8152 34.5167 63.7952 35.174C62.7979 35.854 61.7779 36.2167 60.7352 36.262C59.6019 36.262 58.9106 36.2167 58.6612 36.126L58.4232 34.188C59.0126 34.188 59.6019 34.0633 60.1912 33.814C61.0526 33.4513 61.6646 32.6807 62.0272 31.502C62.4126 30.3233 62.6052 28.7367 62.6052 26.742L62.5712 12.394L60.1572 11.748V9.402ZM80.1859 28.374C77.1939 28.374 74.9612 27.5013 73.4879 25.756C72.0372 23.988 71.3119 21.5853 71.3119 18.548C71.3119 16.508 71.6859 14.74 72.4339 13.244C73.2046 11.748 74.2812 10.6033 75.6639 9.81C77.0466 9.01667 78.6446 8.62 80.4579 8.62C82.7246 8.62 84.4699 9.22067 85.6939 10.422C86.9179 11.6007 87.5526 13.2893 87.5979 15.488C87.5979 16.984 87.5072 18.0947 87.3259 18.82H76.2759C76.3666 20.8827 76.8539 22.492 77.7379 23.648C78.6219 24.7813 79.8799 25.348 81.5119 25.348C82.3959 25.348 83.3026 25.2007 84.2319 24.906C85.1839 24.6113 85.9319 24.26 86.4759 23.852L87.3259 25.722C86.7139 26.3793 85.7166 26.9913 84.3339 27.558C82.9739 28.102 81.5912 28.374 80.1859 28.374ZM82.8379 16.78C82.8832 16.1453 82.9059 15.658 82.9059 15.318C82.9059 12.3033 81.8972 10.796 79.8799 10.796C78.7692 10.796 77.9079 11.238 77.2959 12.122C76.6839 13.006 76.3439 14.5587 76.2759 16.78H82.8379ZM89.8693 18.65C89.8693 16.7007 90.2546 14.9667 91.0252 13.448C91.8186 11.9293 92.9406 10.7507 94.3913 9.912C95.8646 9.05067 97.5759 8.62 99.5253 8.62C100.432 8.62 101.214 8.688 101.871 8.824C102.529 8.96 103.265 9.14133 104.081 9.368L105.067 9.64L104.863 15.454H101.905L101.055 11.714C100.919 11.1247 100.251 10.83 99.0493 10.83C97.7799 10.83 96.7826 11.3853 96.0573 12.496C95.3546 13.6067 94.9919 15.3407 94.9693 17.698C94.9693 20.1913 95.3999 22.1067 96.2613 23.444C97.1226 24.7587 98.2673 25.416 99.6953 25.416C101.418 25.416 103.005 24.9513 104.455 24.022L105.237 25.79C104.648 26.4247 103.741 27.014 102.517 27.558C101.316 28.102 100.013 28.374 98.6073 28.374C95.7059 28.374 93.5186 27.4787 92.0453 25.688C90.5946 23.8973 89.8693 21.5513 89.8693 18.65ZM113.654 28.306C112.226 28.306 111.172 27.9773 110.492 27.32C109.812 26.6627 109.472 25.62 109.472 24.192V11.714H107.262V9.946C107.443 9.878 107.772 9.76467 108.248 9.606C108.724 9.42467 109.087 9.27733 109.336 9.164C109.721 8.86933 110.05 8.35933 110.322 7.634C110.526 7.158 110.9 5.97933 111.444 4.098H114.164L114.3 9.096H119.502V11.714H114.334V21.268C114.334 22.5373 114.368 23.4327 114.436 23.954C114.504 24.4753 114.651 24.8153 114.878 24.974C115.105 25.11 115.501 25.178 116.068 25.178C116.635 25.178 117.224 25.1213 117.836 25.008C118.448 24.872 118.958 24.7133 119.366 24.532L120.012 26.436C119.377 26.912 118.448 27.3427 117.224 27.728C116 28.1133 114.81 28.306 113.654 28.306ZM137.947 4.982L133.085 5.152L131.759 12.564H128.903L129.481 2.738H151.411L151.819 12.564H149.133L147.807 5.152L143.013 4.982V25.62L147.773 25.96V28H133.595V25.96L137.947 25.62V4.982ZM153.89 25.96L156.576 25.62V5.288L154.026 4.812V2.738H158.956C159.387 2.738 159.863 2.72667 160.384 2.704C160.906 2.68133 161.302 2.65866 161.574 2.636C162.753 2.54533 163.728 2.5 164.498 2.5C166.833 2.5 168.703 2.738 170.108 3.214C171.514 3.69 172.534 4.41533 173.168 5.39C173.803 6.36467 174.12 7.64533 174.12 9.232C174.12 10.796 173.701 12.2467 172.862 13.584C172.024 14.9213 170.811 15.8393 169.224 16.338C170.131 16.7233 170.936 17.426 171.638 18.446C172.341 19.466 173.089 20.792 173.882 22.424C174.449 23.5347 174.88 24.3393 175.174 24.838C175.492 25.314 175.798 25.586 176.092 25.654L177.214 25.994V28H171.434C171.072 28 170.686 27.6373 170.278 26.912C169.893 26.164 169.383 24.9967 168.748 23.41C168 21.5513 167.354 20.1007 166.81 19.058C166.266 18.0153 165.688 17.3693 165.076 17.12H161.574V25.62L164.702 25.96V28H153.89V25.96ZM164.702 15.046C165.994 15.046 167.003 14.5813 167.728 13.652C168.454 12.7227 168.816 11.3287 168.816 9.47C168.816 7.81533 168.454 6.59133 167.728 5.798C167.026 5.00467 165.802 4.608 164.056 4.608C163.422 4.608 162.878 4.642 162.424 4.71C161.994 4.75533 161.71 4.778 161.574 4.778V14.978C161.846 15.0233 162.504 15.046 163.546 15.046H164.702ZM186.35 2.602H191.552L199.406 25.62L201.378 25.96V28H191.348V25.96L193.898 25.62L192.572 21.2H183.766L182.44 25.654L185.194 25.96V28H176.524L176.49 25.96L178.53 25.62L186.35 2.602ZM188.696 8.348L188.084 5.696L187.438 8.382L184.412 18.82H191.892L188.696 8.348ZM211.039 28.374C209.815 28.374 208.716 28.272 207.741 28.068C206.767 27.864 205.679 27.592 204.477 27.252C203.684 27.0253 203.151 26.9007 202.879 26.878L203.185 20.588H205.939L206.687 24.974C206.982 25.2913 207.503 25.5747 208.251 25.824C209.022 26.0733 209.895 26.198 210.869 26.198C212.388 26.198 213.521 25.8693 214.269 25.212C215.04 24.532 215.425 23.5913 215.425 22.39C215.425 21.5967 215.199 20.9167 214.745 20.35C214.292 19.7607 213.669 19.2393 212.875 18.786C212.082 18.31 210.994 17.766 209.611 17.154C207.73 16.2927 206.166 15.2727 204.919 14.094C203.695 12.8927 203.083 11.272 203.083 9.232C203.083 7.96267 203.412 6.818 204.069 5.798C204.727 4.75533 205.701 3.93933 206.993 3.35C208.308 2.738 209.906 2.432 211.787 2.432C212.898 2.432 213.873 2.51133 214.711 2.67C215.573 2.82867 216.502 3.044 217.499 3.316C218.089 3.47467 218.531 3.57667 218.825 3.622L218.621 9.572H215.901L215.187 5.39C214.983 5.186 214.575 4.99333 213.963 4.812C213.351 4.608 212.671 4.506 211.923 4.506C210.563 4.506 209.532 4.82333 208.829 5.458C208.149 6.07 207.809 6.89733 207.809 7.94C207.809 8.77867 208.059 9.504 208.557 10.116C209.079 10.728 209.702 11.2493 210.427 11.68C211.153 12.088 212.297 12.6773 213.861 13.448C215.131 14.06 216.219 14.6607 217.125 15.25C218.032 15.8393 218.814 16.61 219.471 17.562C220.129 18.4913 220.457 19.5907 220.457 20.86C220.457 22.1067 220.14 23.2967 219.505 24.43C218.893 25.5633 217.873 26.504 216.445 27.252C215.04 28 213.238 28.374 211.039 28.374ZM225.474 5.288L222.958 4.846V2.738H233.294V4.846L230.438 5.288V13.822H240.774V5.288L238.156 4.846V2.738H248.356V4.846L245.772 5.288V25.62L248.356 25.96V28H238.122V25.96L240.774 25.62V16.406H230.438V25.62L233.294 25.96V28H222.89V25.96L225.474 25.62V5.288Z" fill="#1B5639"/>
</svg>
